<svg xmlns="http://www.w3.org/2000/svg" version="1.1" viewBox="0 0 170 170" width="150" height="150"><rect width="100%" height="100%" fill="#ffffff"/><g clip-path="url(#clip_foreground)"><path d="M40.61,10h3.061v3.061h-3.061z M46.732,10h3.061v3.061h-3.061z M55.915,10h3.061v3.061h-3.061z M65.098,10h3.061v3.061h-3.061z M71.22,10h3.061v3.061h-3.061z M74.281,10h3.061v3.061h-3.061z M80.403,10h3.061v3.061h-3.061z M83.464,10h3.061v3.061h-3.061z M101.83,10h3.061v3.061h-3.061z M104.891,10h3.061v3.061h-3.061z M117.135,10h3.061v3.061h-3.061z M120.196,10h3.061v3.061h-3.061z M123.257,10h3.061v3.061h-3.061z M132.44,10h3.061v3.061h-3.061z M37.549,13.061h3.061v3.061h-3.061z M52.854,13.061h3.061v3.061h-3.061z M58.976,13.061h3.061v3.061h-3.061z M62.037,13.061h3.061v3.061h-3.061z M65.098,13.061h3.061v3.061h-3.061z M68.159,13.061h3.061v3.061h-3.061z M71.22,13.061h3.061v3.061h-3.061z M77.342,13.061h3.061v3.061h-3.061z M83.464,13.061h3.061v3.061h-3.061z M86.525,13.061h3.061v3.061h-3.061z M92.647,13.061h3.061v3.061h-3.061z M98.769,13.061h3.061v3.061h-3.061z M101.83,13.061h3.061v3.061h-3.061z M111.013,13.061h3.061v3.061h-3.061z M117.135,13.061h3.061v3.061h-3.061z M120.196,13.061h3.061v3.061h-3.061z M126.318,13.061h3.061v3.061h-3.061z M129.379,13.061h3.061v3.061h-3.061z M132.44,13.061h3.061v3.061h-3.061z M34.488,16.122h3.061v3.061h-3.061z M40.61,16.122h3.061v3.061h-3.061z M46.732,16.122h3.061v3.061h-3.061z M55.915,16.122h3.061v3.061h-3.061z M58.976,16.122h3.061v3.061h-3.061z M62.037,16.122h3.061v3.061h-3.061z M71.22,16.122h3.061v3.061h-3.061z M74.281,16.122h3.061v3.061h-3.061z M80.403,16.122h3.061v3.061h-3.061z M83.464,16.122h3.061v3.061h-3.061z M86.525,16.122h3.061v3.061h-3.061z M95.708,16.122h3.061v3.061h-3.061z M101.83,16.122h3.061v3.061h-3.061z M104.891,16.122h3.061v3.061h-3.061z M107.952,16.122h3.061v3.061h-3.061z M111.013,16.122h3.061v3.061h-3.061z M114.074,16.122h3.061v3.061h-3.061z M117.135,16.122h3.061v3.061h-3.061z M129.379,16.122h3.061v3.061h-3.061z M132.44,16.122h3.061v3.061h-3.061z M34.488,19.183h3.061v3.061h-3.061z M37.549,19.183h3.061v3.061h-3.061z M43.671,19.183h3.061v3.061h-3.061z M46.732,19.183h3.061v3.061h-3.061z M52.854,19.183h3.061v3.061h-3.061z M55.915,19.183h3.061v3.061h-3.061z M58.976,19.183h3.061v3.061h-3.061z M68.159,19.183h3.061v3.061h-3.061z M74.281,19.183h3.061v3.061h-3.061z M77.342,19.183h3.061v3.061h-3.061z M83.464,19.183h3.061v3.061h-3.061z M86.525,19.183h3.061v3.061h-3.061z M89.586,19.183h3.061v3.061h-3.061z M92.647,19.183h3.061v3.061h-3.061z M101.83,19.183h3.061v3.061h-3.061z M111.013,19.183h3.061v3.061h-3.061z M120.196,19.183h3.061v3.061h-3.061z M129.379,19.183h3.061v3.061h-3.061z M34.488,22.244h3.061v3.061h-3.061z M37.549,22.244h3.061v3.061h-3.061z M49.793,22.244h3.061v3.061h-3.061z M52.854,22.244h3.061v3.061h-3.061z M58.976,22.244h3.061v3.061h-3.061z M62.037,22.244h3.061v3.061h-3.061z M65.098,22.244h3.061v3.061h-3.061z M74.281,22.244h3.061v3.061h-3.061z M77.342,22.244h3.061v3.061h-3.061z M80.403,22.244h3.061v3.061h-3.061z M83.464,22.244h3.061v3.061h-3.061z M86.525,22.244h3.061v3.061h-3.061z M89.586,22.244h3.061v3.061h-3.061z M92.647,22.244h3.061v3.061h-3.061z M95.708,22.244h3.061v3.061h-3.061z M101.83,22.244h3.061v3.061h-3.061z M107.952,22.244h3.061v3.061h-3.061z M111.013,22.244h3.061v3.061h-3.061z M117.135,22.244h3.061v3.061h-3.061z M120.196,22.244h3.061v3.061h-3.061z M123.257,22.244h3.061v3.061h-3.061z M34.488,25.305h3.061v3.061h-3.061z M40.61,25.305h3.061v3.061h-3.061z M58.976,25.305h3.061v3.061h-3.061z M65.098,25.305h3.061v3.061h-3.061z M68.159,25.305h3.061v3.061h-3.061z M77.342,25.305h3.061v3.061h-3.061z M89.586,25.305h3.061v3.061h-3.061z M92.647,25.305h3.061v3.061h-3.061z M98.769,25.305h3.061v3.061h-3.061z M104.891,25.305h3.061v3.061h-3.061z M114.074,25.305h3.061v3.061h-3.061z M117.135,25.305h3.061v3.061h-3.061z M120.196,25.305h3.061v3.061h-3.061z M123.257,25.305h3.061v3.061h-3.061z M126.318,25.305h3.061v3.061h-3.061z M34.488,28.366h3.061v3.061h-3.061z M40.61,28.366h3.061v3.061h-3.061z M46.732,28.366h3.061v3.061h-3.061z M52.854,28.366h3.061v3.061h-3.061z M58.976,28.366h3.061v3.061h-3.061z M65.098,28.366h3.061v3.061h-3.061z M71.22,28.366h3.061v3.061h-3.061z M77.342,28.366h3.061v3.061h-3.061z M83.464,28.366h3.061v3.061h-3.061z M89.586,28.366h3.061v3.061h-3.061z M95.708,28.366h3.061v3.061h-3.061z M101.83,28.366h3.061v3.061h-3.061z M107.952,28.366h3.061v3.061h-3.061z M114.074,28.366h3.061v3.061h-3.061z M120.196,28.366h3.061v3.061h-3.061z M126.318,28.366h3.061v3.061h-3.061z M132.44,28.366h3.061v3.061h-3.061z M34.488,31.427h3.061v3.061h-3.061z M55.915,31.427h3.061v3.061h-3.061z M58.976,31.427h3.061v3.061h-3.061z M65.098,31.427h3.061v3.061h-3.061z M74.281,31.427h3.061v3.061h-3.061z M77.342,31.427h3.061v3.061h-3.061z M89.586,31.427h3.061v3.061h-3.061z M95.708,31.427h3.061v3.061h-3.061z M104.891,31.427h3.061v3.061h-3.061z M107.952,31.427h3.061v3.061h-3.061z M111.013,31.427h3.061v3.061h-3.061z M114.074,31.427h3.061v3.061h-3.061z M117.135,31.427h3.061v3.061h-3.061z M123.257,31.427h3.061v3.061h-3.061z M129.379,31.427h3.061v3.061h-3.061z M10,34.488h3.061v3.061h-3.061z M16.122,34.488h3.061v3.061h-3.061z M19.183,34.488h3.061v3.061h-3.061z M22.244,34.488h3.061v3.061h-3.061z M25.305,34.488h3.061v3.061h-3.061z M28.366,34.488h3.061v3.061h-3.061z M37.549,34.488h3.061v3.061h-3.061z M40.61,34.488h3.061v3.061h-3.061z M43.671,34.488h3.061v3.061h-3.061z M46.732,34.488h3.061v3.061h-3.061z M49.793,34.488h3.061v3.061h-3.061z M52.854,34.488h3.061v3.061h-3.061z M58.976,34.488h3.061v3.061h-3.061z M71.22,34.488h3.061v3.061h-3.061z M74.281,34.488h3.061v3.061h-3.061z M77.342,34.488h3.061v3.061h-3.061z M80.403,34.488h3.061v3.061h-3.061z M83.464,34.488h3.061v3.061h-3.061z M86.525,34.488h3.061v3.061h-3.061z M89.586,34.488h3.061v3.061h-3.061z M92.647,34.488h3.061v3.061h-3.061z M98.769,34.488h3.061v3.061h-3.061z M101.83,34.488h3.061v3.061h-3.061z M120.196,34.488h3.061v3.061h-3.061z M132.44,34.488h3.061v3.061h-3.061z M138.562,34.488h3.061v3.061h-3.061z M141.623,34.488h3.061v3.061h-3.061z M144.684,34.488h3.061v3.061h-3.061z M147.745,34.488h3.061v3.061h-3.061z M150.806,34.488h3.061v3.061h-3.061z M10,37.549h3.061v3.061h-3.061z M13.061,37.549h3.061v3.061h-3.061z M19.183,37.549h3.061v3.061h-3.061z M37.549,37.549h3.061v3.061h-3.061z M49.793,37.549h3.061v3.061h-3.061z M62.037,37.549h3.061v3.061h-3.061z M65.098,37.549h3.061v3.061h-3.061z M68.159,37.549h3.061v3.061h-3.061z M74.281,37.549h3.061v3.061h-3.061z M77.342,37.549h3.061v3.061h-3.061z M80.403,37.549h3.061v3.061h-3.061z M83.464,37.549h3.061v3.061h-3.061z M92.647,37.549h3.061v3.061h-3.061z M101.83,37.549h3.061v3.061h-3.061z M104.891,37.549h3.061v3.061h-3.061z M111.013,37.549h3.061v3.061h-3.061z M117.135,37.549h3.061v3.061h-3.061z M120.196,37.549h3.061v3.061h-3.061z M129.379,37.549h3.061v3.061h-3.061z M135.501,37.549h3.061v3.061h-3.061z M138.562,37.549h3.061v3.061h-3.061z M147.745,37.549h3.061v3.061h-3.061z M153.867,37.549h3.061v3.061h-3.061z M16.122,40.61h3.061v3.061h-3.061z M22.244,40.61h3.061v3.061h-3.061z M25.305,40.61h3.061v3.061h-3.061z M28.366,40.61h3.061v3.061h-3.061z M31.427,40.61h3.061v3.061h-3.061z M34.488,40.61h3.061v3.061h-3.061z M40.61,40.61h3.061v3.061h-3.061z M43.671,40.61h3.061v3.061h-3.061z M52.854,40.61h3.061v3.061h-3.061z M55.915,40.61h3.061v3.061h-3.061z M58.976,40.61h3.061v3.061h-3.061z M62.037,40.61h3.061v3.061h-3.061z M65.098,40.61h3.061v3.061h-3.061z M68.159,40.61h3.061v3.061h-3.061z M83.464,40.61h3.061v3.061h-3.061z M86.525,40.61h3.061v3.061h-3.061z M89.586,40.61h3.061v3.061h-3.061z M92.647,40.61h3.061v3.061h-3.061z M98.769,40.61h3.061v3.061h-3.061z M107.952,40.61h3.061v3.061h-3.061z M114.074,40.61h3.061v3.061h-3.061z M123.257,40.61h3.061v3.061h-3.061z M126.318,40.61h3.061v3.061h-3.061z M147.745,40.61h3.061v3.061h-3.061z M156.928,40.61h3.061v3.061h-3.061z M16.122,43.671h3.061v3.061h-3.061z M19.183,43.671h3.061v3.061h-3.061z M22.244,43.671h3.061v3.061h-3.061z M25.305,43.671h3.061v3.061h-3.061z M31.427,43.671h3.061v3.061h-3.061z M34.488,43.671h3.061v3.061h-3.061z M37.549,43.671h3.061v3.061h-3.061z M40.61,43.671h3.061v3.061h-3.061z M46.732,43.671h3.061v3.061h-3.061z M58.976,43.671h3.061v3.061h-3.061z M71.22,43.671h3.061v3.061h-3.061z M80.403,43.671h3.061v3.061h-3.061z M89.586,43.671h3.061v3.061h-3.061z M95.708,43.671h3.061v3.061h-3.061z M101.83,43.671h3.061v3.061h-3.061z M104.891,43.671h3.061v3.061h-3.061z M107.952,43.671h3.061v3.061h-3.061z M111.013,43.671h3.061v3.061h-3.061z M114.074,43.671h3.061v3.061h-3.061z M117.135,43.671h3.061v3.061h-3.061z M138.562,43.671h3.061v3.061h-3.061z M141.623,43.671h3.061v3.061h-3.061z M144.684,43.671h3.061v3.061h-3.061z M147.745,43.671h3.061v3.061h-3.061z M153.867,43.671h3.061v3.061h-3.061z M156.928,43.671h3.061v3.061h-3.061z M10,46.732h3.061v3.061h-3.061z M16.122,46.732h3.061v3.061h-3.061z M22.244,46.732h3.061v3.061h-3.061z M28.366,46.732h3.061v3.061h-3.061z M37.549,46.732h3.061v3.061h-3.061z M40.61,46.732h3.061v3.061h-3.061z M46.732,46.732h3.061v3.061h-3.061z M49.793,46.732h3.061v3.061h-3.061z M52.854,46.732h3.061v3.061h-3.061z M58.976,46.732h3.061v3.061h-3.061z M62.037,46.732h3.061v3.061h-3.061z M74.281,46.732h3.061v3.061h-3.061z M77.342,46.732h3.061v3.061h-3.061z M80.403,46.732h3.061v3.061h-3.061z M83.464,46.732h3.061v3.061h-3.061z M92.647,46.732h3.061v3.061h-3.061z M111.013,46.732h3.061v3.061h-3.061z M120.196,46.732h3.061v3.061h-3.061z M123.257,46.732h3.061v3.061h-3.061z M132.44,46.732h3.061v3.061h-3.061z M135.501,46.732h3.061v3.061h-3.061z M138.562,46.732h3.061v3.061h-3.061z M150.806,46.732h3.061v3.061h-3.061z M13.061,49.793h3.061v3.061h-3.061z M25.305,49.793h3.061v3.061h-3.061z M31.427,49.793h3.061v3.061h-3.061z M34.488,49.793h3.061v3.061h-3.061z M37.549,49.793h3.061v3.061h-3.061z M43.671,49.793h3.061v3.061h-3.061z M46.732,49.793h3.061v3.061h-3.061z M49.793,49.793h3.061v3.061h-3.061z M52.854,49.793h3.061v3.061h-3.061z M58.976,49.793h3.061v3.061h-3.061z M62.037,49.793h3.061v3.061h-3.061z M68.159,49.793h3.061v3.061h-3.061z M71.22,49.793h3.061v3.061h-3.061z M77.342,49.793h3.061v3.061h-3.061z M80.403,49.793h3.061v3.061h-3.061z M83.464,49.793h3.061v3.061h-3.061z M86.525,49.793h3.061v3.061h-3.061z M92.647,49.793h3.061v3.061h-3.061z M101.83,49.793h3.061v3.061h-3.061z M104.891,49.793h3.061v3.061h-3.061z M111.013,49.793h3.061v3.061h-3.061z M117.135,49.793h3.061v3.061h-3.061z M120.196,49.793h3.061v3.061h-3.061z M129.379,49.793h3.061v3.061h-3.061z M138.562,49.793h3.061v3.061h-3.061z M147.745,49.793h3.061v3.061h-3.061z M153.867,49.793h3.061v3.061h-3.061z M16.122,52.854h3.061v3.061h-3.061z M22.244,52.854h3.061v3.061h-3.061z M28.366,52.854h3.061v3.061h-3.061z M34.488,52.854h3.061v3.061h-3.061z M49.793,52.854h3.061v3.061h-3.061z M52.854,52.854h3.061v3.061h-3.061z M55.915,52.854h3.061v3.061h-3.061z M58.976,52.854h3.061v3.061h-3.061z M71.22,52.854h3.061v3.061h-3.061z M74.281,52.854h3.061v3.061h-3.061z M77.342,52.854h3.061v3.061h-3.061z M80.403,52.854h3.061v3.061h-3.061z M83.464,52.854h3.061v3.061h-3.061z M86.525,52.854h3.061v3.061h-3.061z M92.647,52.854h3.061v3.061h-3.061z M98.769,52.854h3.061v3.061h-3.061z M114.074,52.854h3.061v3.061h-3.061z M117.135,52.854h3.061v3.061h-3.061z M120.196,52.854h3.061v3.061h-3.061z M123.257,52.854h3.061v3.061h-3.061z M126.318,52.854h3.061v3.061h-3.061z M135.501,52.854h3.061v3.061h-3.061z M141.623,52.854h3.061v3.061h-3.061z M147.745,52.854h3.061v3.061h-3.061z M156.928,52.854h3.061v3.061h-3.061z M31.427,55.915h3.061v3.061h-3.061z M34.488,55.915h3.061v3.061h-3.061z M43.671,55.915h3.061v3.061h-3.061z M49.793,55.915h3.061v3.061h-3.061z M55.915,55.915h3.061v3.061h-3.061z M58.976,55.915h3.061v3.061h-3.061z M62.037,55.915h3.061v3.061h-3.061z M65.098,55.915h3.061v3.061h-3.061z M68.159,55.915h3.061v3.061h-3.061z M71.22,55.915h3.061v3.061h-3.061z M77.342,55.915h3.061v3.061h-3.061z M83.464,55.915h3.061v3.061h-3.061z M92.647,55.915h3.061v3.061h-3.061z M98.769,55.915h3.061v3.061h-3.061z M117.135,55.915h3.061v3.061h-3.061z M123.257,55.915h3.061v3.061h-3.061z M135.501,55.915h3.061v3.061h-3.061z M138.562,55.915h3.061v3.061h-3.061z M141.623,55.915h3.061v3.061h-3.061z M144.684,55.915h3.061v3.061h-3.061z M156.928,55.915h3.061v3.061h-3.061z M28.366,58.976h3.061v3.061h-3.061z M40.61,58.976h3.061v3.061h-3.061z M46.732,58.976h3.061v3.061h-3.061z M58.976,58.976h3.061v3.061h-3.061z M62.037,58.976h3.061v3.061h-3.061z M65.098,58.976h3.061v3.061h-3.061z M71.22,58.976h3.061v3.061h-3.061z M74.281,58.976h3.061v3.061h-3.061z M80.403,58.976h3.061v3.061h-3.061z M83.464,58.976h3.061v3.061h-3.061z M95.708,58.976h3.061v3.061h-3.061z M104.891,58.976h3.061v3.061h-3.061z M107.952,58.976h3.061v3.061h-3.061z M111.013,58.976h3.061v3.061h-3.061z M120.196,58.976h3.061v3.061h-3.061z M126.318,58.976h3.061v3.061h-3.061z M132.44,58.976h3.061v3.061h-3.061z M135.501,58.976h3.061v3.061h-3.061z M150.806,58.976h3.061v3.061h-3.061z M156.928,58.976h3.061v3.061h-3.061z M19.183,62.037h3.061v3.061h-3.061z M22.244,62.037h3.061v3.061h-3.061z M31.427,62.037h3.061v3.061h-3.061z M34.488,62.037h3.061v3.061h-3.061z M40.61,62.037h3.061v3.061h-3.061z M43.671,62.037h3.061v3.061h-3.061z M46.732,62.037h3.061v3.061h-3.061z M49.793,62.037h3.061v3.061h-3.061z M55.915,62.037h3.061v3.061h-3.061z M58.976,62.037h3.061v3.061h-3.061z M62.037,62.037h3.061v3.061h-3.061z M65.098,62.037h3.061v3.061h-3.061z M68.159,62.037h3.061v3.061h-3.061z M74.281,62.037h3.061v3.061h-3.061z M80.403,62.037h3.061v3.061h-3.061z M83.464,62.037h3.061v3.061h-3.061z M86.525,62.037h3.061v3.061h-3.061z M92.647,62.037h3.061v3.061h-3.061z M95.708,62.037h3.061v3.061h-3.061z M98.769,62.037h3.061v3.061h-3.061z M107.952,62.037h3.061v3.061h-3.061z M117.135,62.037h3.061v3.061h-3.061z M129.379,62.037h3.061v3.061h-3.061z M138.562,62.037h3.061v3.061h-3.061z M147.745,62.037h3.061v3.061h-3.061z M13.061,65.098h3.061v3.061h-3.061z M16.122,65.098h3.061v3.061h-3.061z M19.183,65.098h3.061v3.061h-3.061z M22.244,65.098h3.061v3.061h-3.061z M28.366,65.098h3.061v3.061h-3.061z M37.549,65.098h3.061v3.061h-3.061z M43.671,65.098h3.061v3.061h-3.061z M55.915,65.098h3.061v3.061h-3.061z M74.281,65.098h3.061v3.061h-3.061z M77.342,65.098h3.061v3.061h-3.061z M95.708,65.098h3.061v3.061h-3.061z M101.83,65.098h3.061v3.061h-3.061z M104.891,65.098h3.061v3.061h-3.061z M107.952,65.098h3.061v3.061h-3.061z M111.013,65.098h3.061v3.061h-3.061z M117.135,65.098h3.061v3.061h-3.061z M120.196,65.098h3.061v3.061h-3.061z M123.257,65.098h3.061v3.061h-3.061z M126.318,65.098h3.061v3.061h-3.061z M135.501,65.098h3.061v3.061h-3.061z M147.745,65.098h3.061v3.061h-3.061z M156.928,65.098h3.061v3.061h-3.061z M10,68.159h3.061v3.061h-3.061z M16.122,68.159h3.061v3.061h-3.061z M19.183,68.159h3.061v3.061h-3.061z M25.305,68.159h3.061v3.061h-3.061z M31.427,68.159h3.061v3.061h-3.061z M37.549,68.159h3.061v3.061h-3.061z M40.61,68.159h3.061v3.061h-3.061z M46.732,68.159h3.061v3.061h-3.061z M49.793,68.159h3.061v3.061h-3.061z M52.854,68.159h3.061v3.061h-3.061z M65.098,68.159h3.061v3.061h-3.061z M68.159,68.159h3.061v3.061h-3.061z M74.281,68.159h3.061v3.061h-3.061z M80.403,68.159h3.061v3.061h-3.061z M86.525,68.159h3.061v3.061h-3.061z M89.586,68.159h3.061v3.061h-3.061z M95.708,68.159h3.061v3.061h-3.061z M101.83,68.159h3.061v3.061h-3.061z M104.891,68.159h3.061v3.061h-3.061z M107.952,68.159h3.061v3.061h-3.061z M111.013,68.159h3.061v3.061h-3.061z M117.135,68.159h3.061v3.061h-3.061z M129.379,68.159h3.061v3.061h-3.061z M135.501,68.159h3.061v3.061h-3.061z M138.562,68.159h3.061v3.061h-3.061z M141.623,68.159h3.061v3.061h-3.061z M144.684,68.159h3.061v3.061h-3.061z M147.745,68.159h3.061v3.061h-3.061z M10,71.22h3.061v3.061h-3.061z M13.061,71.22h3.061v3.061h-3.061z M28.366,71.22h3.061v3.061h-3.061z M34.488,71.22h3.061v3.061h-3.061z M46.732,71.22h3.061v3.061h-3.061z M52.854,71.22h3.061v3.061h-3.061z M62.037,71.22h3.061v3.061h-3.061z M65.098,71.22h3.061v3.061h-3.061z M68.159,71.22h3.061v3.061h-3.061z M71.22,71.22h3.061v3.061h-3.061z M77.342,71.22h3.061v3.061h-3.061z M83.464,71.22h3.061v3.061h-3.061z M89.586,71.22h3.061v3.061h-3.061z M92.647,71.22h3.061v3.061h-3.061z M101.83,71.22h3.061v3.061h-3.061z M111.013,71.22h3.061v3.061h-3.061z M120.196,71.22h3.061v3.061h-3.061z M123.257,71.22h3.061v3.061h-3.061z M132.44,71.22h3.061v3.061h-3.061z M135.501,71.22h3.061v3.061h-3.061z M138.562,71.22h3.061v3.061h-3.061z M150.806,71.22h3.061v3.061h-3.061z M153.867,71.22h3.061v3.061h-3.061z M13.061,74.281h3.061v3.061h-3.061z M19.183,74.281h3.061v3.061h-3.061z M22.244,74.281h3.061v3.061h-3.061z M31.427,74.281h3.061v3.061h-3.061z M37.549,74.281h3.061v3.061h-3.061z M40.61,74.281h3.061v3.061h-3.061z M46.732,74.281h3.061v3.061h-3.061z M49.793,74.281h3.061v3.061h-3.061z M55.915,74.281h3.061v3.061h-3.061z M58.976,74.281h3.061v3.061h-3.061z M62.037,74.281h3.061v3.061h-3.061z M83.464,74.281h3.061v3.061h-3.061z M86.525,74.281h3.061v3.061h-3.061z M89.586,74.281h3.061v3.061h-3.061z M92.647,74.281h3.061v3.061h-3.061z M101.83,74.281h3.061v3.061h-3.061z M107.952,74.281h3.061v3.061h-3.061z M111.013,74.281h3.061v3.061h-3.061z M120.196,74.281h3.061v3.061h-3.061z M129.379,74.281h3.061v3.061h-3.061z M138.562,74.281h3.061v3.061h-3.061z M153.867,74.281h3.061v3.061h-3.061z M22.244,77.342h3.061v3.061h-3.061z M25.305,77.342h3.061v3.061h-3.061z M28.366,77.342h3.061v3.061h-3.061z M31.427,77.342h3.061v3.061h-3.061z M34.488,77.342h3.061v3.061h-3.061z M37.549,77.342h3.061v3.061h-3.061z M40.61,77.342h3.061v3.061h-3.061z M52.854,77.342h3.061v3.061h-3.061z M55.915,77.342h3.061v3.061h-3.061z M58.976,77.342h3.061v3.061h-3.061z M62.037,77.342h3.061v3.061h-3.061z M68.159,77.342h3.061v3.061h-3.061z M77.342,77.342h3.061v3.061h-3.061z M80.403,77.342h3.061v3.061h-3.061z M83.464,77.342h3.061v3.061h-3.061z M86.525,77.342h3.061v3.061h-3.061z M89.586,77.342h3.061v3.061h-3.061z M92.647,77.342h3.061v3.061h-3.061z M95.708,77.342h3.061v3.061h-3.061z M98.769,77.342h3.061v3.061h-3.061z M104.891,77.342h3.061v3.061h-3.061z M107.952,77.342h3.061v3.061h-3.061z M114.074,77.342h3.061v3.061h-3.061z M120.196,77.342h3.061v3.061h-3.061z M123.257,77.342h3.061v3.061h-3.061z M126.318,77.342h3.061v3.061h-3.061z M129.379,77.342h3.061v3.061h-3.061z M132.44,77.342h3.061v3.061h-3.061z M135.501,77.342h3.061v3.061h-3.061z M138.562,77.342h3.061v3.061h-3.061z M141.623,77.342h3.061v3.061h-3.061z M144.684,77.342h3.061v3.061h-3.061z M150.806,77.342h3.061v3.061h-3.061z M156.928,77.342h3.061v3.061h-3.061z M13.061,80.403h3.061v3.061h-3.061z M22.244,80.403h3.061v3.061h-3.061z M34.488,80.403h3.061v3.061h-3.061z M37.549,80.403h3.061v3.061h-3.061z M46.732,80.403h3.061v3.061h-3.061z M49.793,80.403h3.061v3.061h-3.061z M58.976,80.403h3.061v3.061h-3.061z M65.098,80.403h3.061v3.061h-3.061z M74.281,80.403h3.061v3.061h-3.061z M77.342,80.403h3.061v3.061h-3.061z M89.586,80.403h3.061v3.061h-3.061z M95.708,80.403h3.061v3.061h-3.061z M104.891,80.403h3.061v3.061h-3.061z M107.952,80.403h3.061v3.061h-3.061z M111.013,80.403h3.061v3.061h-3.061z M114.074,80.403h3.061v3.061h-3.061z M117.135,80.403h3.061v3.061h-3.061z M129.379,80.403h3.061v3.061h-3.061z M132.44,80.403h3.061v3.061h-3.061z M144.684,80.403h3.061v3.061h-3.061z M147.745,80.403h3.061v3.061h-3.061z M153.867,80.403h3.061v3.061h-3.061z M10,83.464h3.061v3.061h-3.061z M13.061,83.464h3.061v3.061h-3.061z M19.183,83.464h3.061v3.061h-3.061z M22.244,83.464h3.061v3.061h-3.061z M28.366,83.464h3.061v3.061h-3.061z M34.488,83.464h3.061v3.061h-3.061z M40.61,83.464h3.061v3.061h-3.061z M52.854,83.464h3.061v3.061h-3.061z M55.915,83.464h3.061v3.061h-3.061z M68.159,83.464h3.061v3.061h-3.061z M71.22,83.464h3.061v3.061h-3.061z M74.281,83.464h3.061v3.061h-3.061z M77.342,83.464h3.061v3.061h-3.061z M83.464,83.464h3.061v3.061h-3.061z M89.586,83.464h3.061v3.061h-3.061z M92.647,83.464h3.061v3.061h-3.061z M98.769,83.464h3.061v3.061h-3.061z M101.83,83.464h3.061v3.061h-3.061z M120.196,83.464h3.061v3.061h-3.061z M123.257,83.464h3.061v3.061h-3.061z M129.379,83.464h3.061v3.061h-3.061z M132.44,83.464h3.061v3.061h-3.061z M138.562,83.464h3.061v3.061h-3.061z M144.684,83.464h3.061v3.061h-3.061z M150.806,83.464h3.061v3.061h-3.061z M156.928,83.464h3.061v3.061h-3.061z M13.061,86.525h3.061v3.061h-3.061z M16.122,86.525h3.061v3.061h-3.061z M22.244,86.525h3.061v3.061h-3.061z M34.488,86.525h3.061v3.061h-3.061z M37.549,86.525h3.061v3.061h-3.061z M43.671,86.525h3.061v3.061h-3.061z M49.793,86.525h3.061v3.061h-3.061z M52.854,86.525h3.061v3.061h-3.061z M58.976,86.525h3.061v3.061h-3.061z M62.037,86.525h3.061v3.061h-3.061z M77.342,86.525h3.061v3.061h-3.061z M89.586,86.525h3.061v3.061h-3.061z M92.647,86.525h3.061v3.061h-3.061z M95.708,86.525h3.061v3.061h-3.061z M101.83,86.525h3.061v3.061h-3.061z M104.891,86.525h3.061v3.061h-3.061z M111.013,86.525h3.061v3.061h-3.061z M120.196,86.525h3.061v3.061h-3.061z M129.379,86.525h3.061v3.061h-3.061z M132.44,86.525h3.061v3.061h-3.061z M144.684,86.525h3.061v3.061h-3.061z M147.745,86.525h3.061v3.061h-3.061z M153.867,86.525h3.061v3.061h-3.061z M10,89.586h3.061v3.061h-3.061z M19.183,89.586h3.061v3.061h-3.061z M22.244,89.586h3.061v3.061h-3.061z M25.305,89.586h3.061v3.061h-3.061z M28.366,89.586h3.061v3.061h-3.061z M31.427,89.586h3.061v3.061h-3.061z M34.488,89.586h3.061v3.061h-3.061z M37.549,89.586h3.061v3.061h-3.061z M43.671,89.586h3.061v3.061h-3.061z M49.793,89.586h3.061v3.061h-3.061z M58.976,89.586h3.061v3.061h-3.061z M65.098,89.586h3.061v3.061h-3.061z M74.281,89.586h3.061v3.061h-3.061z M77.342,89.586h3.061v3.061h-3.061z M80.403,89.586h3.061v3.061h-3.061z M83.464,89.586h3.061v3.061h-3.061z M86.525,89.586h3.061v3.061h-3.061z M89.586,89.586h3.061v3.061h-3.061z M92.647,89.586h3.061v3.061h-3.061z M98.769,89.586h3.061v3.061h-3.061z M107.952,89.586h3.061v3.061h-3.061z M114.074,89.586h3.061v3.061h-3.061z M117.135,89.586h3.061v3.061h-3.061z M120.196,89.586h3.061v3.061h-3.061z M123.257,89.586h3.061v3.061h-3.061z M126.318,89.586h3.061v3.061h-3.061z M129.379,89.586h3.061v3.061h-3.061z M132.44,89.586h3.061v3.061h-3.061z M135.501,89.586h3.061v3.061h-3.061z M138.562,89.586h3.061v3.061h-3.061z M141.623,89.586h3.061v3.061h-3.061z M144.684,89.586h3.061v3.061h-3.061z M150.806,89.586h3.061v3.061h-3.061z M156.928,89.586h3.061v3.061h-3.061z M13.061,92.647h3.061v3.061h-3.061z M37.549,92.647h3.061v3.061h-3.061z M46.732,92.647h3.061v3.061h-3.061z M49.793,92.647h3.061v3.061h-3.061z M74.281,92.647h3.061v3.061h-3.061z M77.342,92.647h3.061v3.061h-3.061z M83.464,92.647h3.061v3.061h-3.061z M95.708,92.647h3.061v3.061h-3.061z M101.83,92.647h3.061v3.061h-3.061z M111.013,92.647h3.061v3.061h-3.061z M117.135,92.647h3.061v3.061h-3.061z M132.44,92.647h3.061v3.061h-3.061z M135.501,92.647h3.061v3.061h-3.061z M147.745,92.647h3.061v3.061h-3.061z M10,95.708h3.061v3.061h-3.061z M19.183,95.708h3.061v3.061h-3.061z M22.244,95.708h3.061v3.061h-3.061z M25.305,95.708h3.061v3.061h-3.061z M28.366,95.708h3.061v3.061h-3.061z M31.427,95.708h3.061v3.061h-3.061z M37.549,95.708h3.061v3.061h-3.061z M58.976,95.708h3.061v3.061h-3.061z M62.037,95.708h3.061v3.061h-3.061z M68.159,95.708h3.061v3.061h-3.061z M74.281,95.708h3.061v3.061h-3.061z M77.342,95.708h3.061v3.061h-3.061z M83.464,95.708h3.061v3.061h-3.061z M92.647,95.708h3.061v3.061h-3.061z M104.891,95.708h3.061v3.061h-3.061z M111.013,95.708h3.061v3.061h-3.061z M120.196,95.708h3.061v3.061h-3.061z M129.379,95.708h3.061v3.061h-3.061z M138.562,95.708h3.061v3.061h-3.061z M144.684,95.708h3.061v3.061h-3.061z M150.806,95.708h3.061v3.061h-3.061z M153.867,95.708h3.061v3.061h-3.061z M156.928,95.708h3.061v3.061h-3.061z M10,98.769h3.061v3.061h-3.061z M13.061,98.769h3.061v3.061h-3.061z M19.183,98.769h3.061v3.061h-3.061z M22.244,98.769h3.061v3.061h-3.061z M31.427,98.769h3.061v3.061h-3.061z M34.488,98.769h3.061v3.061h-3.061z M37.549,98.769h3.061v3.061h-3.061z M40.61,98.769h3.061v3.061h-3.061z M49.793,98.769h3.061v3.061h-3.061z M55.915,98.769h3.061v3.061h-3.061z M58.976,98.769h3.061v3.061h-3.061z M62.037,98.769h3.061v3.061h-3.061z M65.098,98.769h3.061v3.061h-3.061z M74.281,98.769h3.061v3.061h-3.061z M77.342,98.769h3.061v3.061h-3.061z M80.403,98.769h3.061v3.061h-3.061z M89.586,98.769h3.061v3.061h-3.061z M92.647,98.769h3.061v3.061h-3.061z M101.83,98.769h3.061v3.061h-3.061z M111.013,98.769h3.061v3.061h-3.061z M120.196,98.769h3.061v3.061h-3.061z M129.379,98.769h3.061v3.061h-3.061z M132.44,98.769h3.061v3.061h-3.061z M135.501,98.769h3.061v3.061h-3.061z M153.867,98.769h3.061v3.061h-3.061z M16.122,101.83h3.061v3.061h-3.061z M22.244,101.83h3.061v3.061h-3.061z M28.366,101.83h3.061v3.061h-3.061z M43.671,101.83h3.061v3.061h-3.061z M52.854,101.83h3.061v3.061h-3.061z M55.915,101.83h3.061v3.061h-3.061z M58.976,101.83h3.061v3.061h-3.061z M62.037,101.83h3.061v3.061h-3.061z M65.098,101.83h3.061v3.061h-3.061z M68.159,101.83h3.061v3.061h-3.061z M77.342,101.83h3.061v3.061h-3.061z M92.647,101.83h3.061v3.061h-3.061z M98.769,101.83h3.061v3.061h-3.061z M114.074,101.83h3.061v3.061h-3.061z M123.257,101.83h3.061v3.061h-3.061z M126.318,101.83h3.061v3.061h-3.061z M129.379,101.83h3.061v3.061h-3.061z M132.44,101.83h3.061v3.061h-3.061z M135.501,101.83h3.061v3.061h-3.061z M138.562,101.83h3.061v3.061h-3.061z M141.623,101.83h3.061v3.061h-3.061z M147.745,101.83h3.061v3.061h-3.061z M156.928,101.83h3.061v3.061h-3.061z M22.244,104.891h3.061v3.061h-3.061z M31.427,104.891h3.061v3.061h-3.061z M37.549,104.891h3.061v3.061h-3.061z M43.671,104.891h3.061v3.061h-3.061z M49.793,104.891h3.061v3.061h-3.061z M52.854,104.891h3.061v3.061h-3.061z M55.915,104.891h3.061v3.061h-3.061z M74.281,104.891h3.061v3.061h-3.061z M80.403,104.891h3.061v3.061h-3.061z M86.525,104.891h3.061v3.061h-3.061z M89.586,104.891h3.061v3.061h-3.061z M101.83,104.891h3.061v3.061h-3.061z M104.891,104.891h3.061v3.061h-3.061z M111.013,104.891h3.061v3.061h-3.061z M117.135,104.891h3.061v3.061h-3.061z M141.623,104.891h3.061v3.061h-3.061z M156.928,104.891h3.061v3.061h-3.061z M10,107.952h3.061v3.061h-3.061z M13.061,107.952h3.061v3.061h-3.061z M16.122,107.952h3.061v3.061h-3.061z M19.183,107.952h3.061v3.061h-3.061z M25.305,107.952h3.061v3.061h-3.061z M28.366,107.952h3.061v3.061h-3.061z M34.488,107.952h3.061v3.061h-3.061z M43.671,107.952h3.061v3.061h-3.061z M52.854,107.952h3.061v3.061h-3.061z M58.976,107.952h3.061v3.061h-3.061z M65.098,107.952h3.061v3.061h-3.061z M68.159,107.952h3.061v3.061h-3.061z M71.22,107.952h3.061v3.061h-3.061z M74.281,107.952h3.061v3.061h-3.061z M80.403,107.952h3.061v3.061h-3.061z M92.647,107.952h3.061v3.061h-3.061z M98.769,107.952h3.061v3.061h-3.061z M101.83,107.952h3.061v3.061h-3.061z M114.074,107.952h3.061v3.061h-3.061z M120.196,107.952h3.061v3.061h-3.061z M123.257,107.952h3.061v3.061h-3.061z M126.318,107.952h3.061v3.061h-3.061z M129.379,107.952h3.061v3.061h-3.061z M138.562,107.952h3.061v3.061h-3.061z M141.623,107.952h3.061v3.061h-3.061z M144.684,107.952h3.061v3.061h-3.061z M147.745,107.952h3.061v3.061h-3.061z M150.806,107.952h3.061v3.061h-3.061z M153.867,107.952h3.061v3.061h-3.061z M156.928,107.952h3.061v3.061h-3.061z M10,111.013h3.061v3.061h-3.061z M16.122,111.013h3.061v3.061h-3.061z M25.305,111.013h3.061v3.061h-3.061z M31.427,111.013h3.061v3.061h-3.061z M34.488,111.013h3.061v3.061h-3.061z M40.61,111.013h3.061v3.061h-3.061z M43.671,111.013h3.061v3.061h-3.061z M49.793,111.013h3.061v3.061h-3.061z M52.854,111.013h3.061v3.061h-3.061z M55.915,111.013h3.061v3.061h-3.061z M58.976,111.013h3.061v3.061h-3.061z M65.098,111.013h3.061v3.061h-3.061z M68.159,111.013h3.061v3.061h-3.061z M74.281,111.013h3.061v3.061h-3.061z M77.342,111.013h3.061v3.061h-3.061z M80.403,111.013h3.061v3.061h-3.061z M83.464,111.013h3.061v3.061h-3.061z M86.525,111.013h3.061v3.061h-3.061z M101.83,111.013h3.061v3.061h-3.061z M104.891,111.013h3.061v3.061h-3.061z M111.013,111.013h3.061v3.061h-3.061z M120.196,111.013h3.061v3.061h-3.061z M129.379,111.013h3.061v3.061h-3.061z M138.562,111.013h3.061v3.061h-3.061z M147.745,111.013h3.061v3.061h-3.061z M10,114.074h3.061v3.061h-3.061z M13.061,114.074h3.061v3.061h-3.061z M16.122,114.074h3.061v3.061h-3.061z M19.183,114.074h3.061v3.061h-3.061z M22.244,114.074h3.061v3.061h-3.061z M28.366,114.074h3.061v3.061h-3.061z M31.427,114.074h3.061v3.061h-3.061z M34.488,114.074h3.061v3.061h-3.061z M37.549,114.074h3.061v3.061h-3.061z M62.037,114.074h3.061v3.061h-3.061z M74.281,114.074h3.061v3.061h-3.061z M83.464,114.074h3.061v3.061h-3.061z M86.525,114.074h3.061v3.061h-3.061z M92.647,114.074h3.061v3.061h-3.061z M98.769,114.074h3.061v3.061h-3.061z M101.83,114.074h3.061v3.061h-3.061z M111.013,114.074h3.061v3.061h-3.061z M117.135,114.074h3.061v3.061h-3.061z M120.196,114.074h3.061v3.061h-3.061z M123.257,114.074h3.061v3.061h-3.061z M126.318,114.074h3.061v3.061h-3.061z M129.379,114.074h3.061v3.061h-3.061z M132.44,114.074h3.061v3.061h-3.061z M138.562,114.074h3.061v3.061h-3.061z M147.745,114.074h3.061v3.061h-3.061z M153.867,114.074h3.061v3.061h-3.061z M156.928,114.074h3.061v3.061h-3.061z M10,117.135h3.061v3.061h-3.061z M16.122,117.135h3.061v3.061h-3.061z M19.183,117.135h3.061v3.061h-3.061z M22.244,117.135h3.061v3.061h-3.061z M25.305,117.135h3.061v3.061h-3.061z M31.427,117.135h3.061v3.061h-3.061z M37.549,117.135h3.061v3.061h-3.061z M43.671,117.135h3.061v3.061h-3.061z M52.854,117.135h3.061v3.061h-3.061z M55.915,117.135h3.061v3.061h-3.061z M62.037,117.135h3.061v3.061h-3.061z M65.098,117.135h3.061v3.061h-3.061z M77.342,117.135h3.061v3.061h-3.061z M86.525,117.135h3.061v3.061h-3.061z M95.708,117.135h3.061v3.061h-3.061z M101.83,117.135h3.061v3.061h-3.061z M111.013,117.135h3.061v3.061h-3.061z M117.135,117.135h3.061v3.061h-3.061z M135.501,117.135h3.061v3.061h-3.061z M147.745,117.135h3.061v3.061h-3.061z M153.867,117.135h3.061v3.061h-3.061z M156.928,117.135h3.061v3.061h-3.061z M10,120.196h3.061v3.061h-3.061z M19.183,120.196h3.061v3.061h-3.061z M22.244,120.196h3.061v3.061h-3.061z M28.366,120.196h3.061v3.061h-3.061z M37.549,120.196h3.061v3.061h-3.061z M46.732,120.196h3.061v3.061h-3.061z M52.854,120.196h3.061v3.061h-3.061z M55.915,120.196h3.061v3.061h-3.061z M74.281,120.196h3.061v3.061h-3.061z M83.464,120.196h3.061v3.061h-3.061z M92.647,120.196h3.061v3.061h-3.061z M101.83,120.196h3.061v3.061h-3.061z M104.891,120.196h3.061v3.061h-3.061z M111.013,120.196h3.061v3.061h-3.061z M120.196,120.196h3.061v3.061h-3.061z M126.318,120.196h3.061v3.061h-3.061z M129.379,120.196h3.061v3.061h-3.061z M132.44,120.196h3.061v3.061h-3.061z M138.562,120.196h3.061v3.061h-3.061z M141.623,120.196h3.061v3.061h-3.061z M144.684,120.196h3.061v3.061h-3.061z M150.806,120.196h3.061v3.061h-3.061z M153.867,120.196h3.061v3.061h-3.061z M156.928,120.196h3.061v3.061h-3.061z M10,123.257h3.061v3.061h-3.061z M19.183,123.257h3.061v3.061h-3.061z M22.244,123.257h3.061v3.061h-3.061z M34.488,123.257h3.061v3.061h-3.061z M37.549,123.257h3.061v3.061h-3.061z M43.671,123.257h3.061v3.061h-3.061z M46.732,123.257h3.061v3.061h-3.061z M49.793,123.257h3.061v3.061h-3.061z M55.915,123.257h3.061v3.061h-3.061z M62.037,123.257h3.061v3.061h-3.061z M68.159,123.257h3.061v3.061h-3.061z M74.281,123.257h3.061v3.061h-3.061z M80.403,123.257h3.061v3.061h-3.061z M83.464,123.257h3.061v3.061h-3.061z M86.525,123.257h3.061v3.061h-3.061z M89.586,123.257h3.061v3.061h-3.061z M92.647,123.257h3.061v3.061h-3.061z M101.83,123.257h3.061v3.061h-3.061z M107.952,123.257h3.061v3.061h-3.061z M111.013,123.257h3.061v3.061h-3.061z M120.196,123.257h3.061v3.061h-3.061z M129.379,123.257h3.061v3.061h-3.061z M138.562,123.257h3.061v3.061h-3.061z M147.745,123.257h3.061v3.061h-3.061z M153.867,123.257h3.061v3.061h-3.061z M13.061,126.318h3.061v3.061h-3.061z M25.305,126.318h3.061v3.061h-3.061z M28.366,126.318h3.061v3.061h-3.061z M34.488,126.318h3.061v3.061h-3.061z M37.549,126.318h3.061v3.061h-3.061z M43.671,126.318h3.061v3.061h-3.061z M58.976,126.318h3.061v3.061h-3.061z M62.037,126.318h3.061v3.061h-3.061z M65.098,126.318h3.061v3.061h-3.061z M86.525,126.318h3.061v3.061h-3.061z M92.647,126.318h3.061v3.061h-3.061z M98.769,126.318h3.061v3.061h-3.061z M104.891,126.318h3.061v3.061h-3.061z M114.074,126.318h3.061v3.061h-3.061z M120.196,126.318h3.061v3.061h-3.061z M123.257,126.318h3.061v3.061h-3.061z M126.318,126.318h3.061v3.061h-3.061z M129.379,126.318h3.061v3.061h-3.061z M132.44,126.318h3.061v3.061h-3.061z M138.562,126.318h3.061v3.061h-3.061z M147.745,126.318h3.061v3.061h-3.061z M156.928,126.318h3.061v3.061h-3.061z M13.061,129.379h3.061v3.061h-3.061z M16.122,129.379h3.061v3.061h-3.061z M19.183,129.379h3.061v3.061h-3.061z M37.549,129.379h3.061v3.061h-3.061z M40.61,129.379h3.061v3.061h-3.061z M52.854,129.379h3.061v3.061h-3.061z M55.915,129.379h3.061v3.061h-3.061z M58.976,129.379h3.061v3.061h-3.061z M68.159,129.379h3.061v3.061h-3.061z M74.281,129.379h3.061v3.061h-3.061z M77.342,129.379h3.061v3.061h-3.061z M83.464,129.379h3.061v3.061h-3.061z M89.586,129.379h3.061v3.061h-3.061z M95.708,129.379h3.061v3.061h-3.061z M104.891,129.379h3.061v3.061h-3.061z M107.952,129.379h3.061v3.061h-3.061z M111.013,129.379h3.061v3.061h-3.061z M114.074,129.379h3.061v3.061h-3.061z M117.135,129.379h3.061v3.061h-3.061z M123.257,129.379h3.061v3.061h-3.061z M135.501,129.379h3.061v3.061h-3.061z M141.623,129.379h3.061v3.061h-3.061z M147.745,129.379h3.061v3.061h-3.061z M153.867,129.379h3.061v3.061h-3.061z M156.928,129.379h3.061v3.061h-3.061z M10,132.44h3.061v3.061h-3.061z M13.061,132.44h3.061v3.061h-3.061z M16.122,132.44h3.061v3.061h-3.061z M28.366,132.44h3.061v3.061h-3.061z M37.549,132.44h3.061v3.061h-3.061z M43.671,132.44h3.061v3.061h-3.061z M52.854,132.44h3.061v3.061h-3.061z M58.976,132.44h3.061v3.061h-3.061z M62.037,132.44h3.061v3.061h-3.061z M65.098,132.44h3.061v3.061h-3.061z M68.159,132.44h3.061v3.061h-3.061z M71.22,132.44h3.061v3.061h-3.061z M77.342,132.44h3.061v3.061h-3.061z M80.403,132.44h3.061v3.061h-3.061z M83.464,132.44h3.061v3.061h-3.061z M86.525,132.44h3.061v3.061h-3.061z M89.586,132.44h3.061v3.061h-3.061z M92.647,132.44h3.061v3.061h-3.061z M98.769,132.44h3.061v3.061h-3.061z M101.83,132.44h3.061v3.061h-3.061z M120.196,132.44h3.061v3.061h-3.061z M126.318,132.44h3.061v3.061h-3.061z M129.379,132.44h3.061v3.061h-3.061z M132.44,132.44h3.061v3.061h-3.061z M135.501,132.44h3.061v3.061h-3.061z M138.562,132.44h3.061v3.061h-3.061z M141.623,132.44h3.061v3.061h-3.061z M144.684,132.44h3.061v3.061h-3.061z M150.806,132.44h3.061v3.061h-3.061z M153.867,132.44h3.061v3.061h-3.061z M156.928,132.44h3.061v3.061h-3.061z M34.488,135.501h3.061v3.061h-3.061z M43.671,135.501h3.061v3.061h-3.061z M46.732,135.501h3.061v3.061h-3.061z M52.854,135.501h3.061v3.061h-3.061z M55.915,135.501h3.061v3.061h-3.061z M58.976,135.501h3.061v3.061h-3.061z M62.037,135.501h3.061v3.061h-3.061z M65.098,135.501h3.061v3.061h-3.061z M74.281,135.501h3.061v3.061h-3.061z M77.342,135.501h3.061v3.061h-3.061z M89.586,135.501h3.061v3.061h-3.061z M92.647,135.501h3.061v3.061h-3.061z M101.83,135.501h3.061v3.061h-3.061z M104.891,135.501h3.061v3.061h-3.061z M111.013,135.501h3.061v3.061h-3.061z M132.44,135.501h3.061v3.061h-3.061z M144.684,135.501h3.061v3.061h-3.061z M153.867,135.501h3.061v3.061h-3.061z M40.61,138.562h3.061v3.061h-3.061z M43.671,138.562h3.061v3.061h-3.061z M46.732,138.562h3.061v3.061h-3.061z M49.793,138.562h3.061v3.061h-3.061z M52.854,138.562h3.061v3.061h-3.061z M58.976,138.562h3.061v3.061h-3.061z M65.098,138.562h3.061v3.061h-3.061z M74.281,138.562h3.061v3.061h-3.061z M77.342,138.562h3.061v3.061h-3.061z M83.464,138.562h3.061v3.061h-3.061z M89.586,138.562h3.061v3.061h-3.061z M92.647,138.562h3.061v3.061h-3.061z M98.769,138.562h3.061v3.061h-3.061z M107.952,138.562h3.061v3.061h-3.061z M114.074,138.562h3.061v3.061h-3.061z M120.196,138.562h3.061v3.061h-3.061z M123.257,138.562h3.061v3.061h-3.061z M126.318,138.562h3.061v3.061h-3.061z M129.379,138.562h3.061v3.061h-3.061z M132.44,138.562h3.061v3.061h-3.061z M138.562,138.562h3.061v3.061h-3.061z M144.684,138.562h3.061v3.061h-3.061z M150.806,138.562h3.061v3.061h-3.061z M156.928,138.562h3.061v3.061h-3.061z M34.488,141.623h3.061v3.061h-3.061z M40.61,141.623h3.061v3.061h-3.061z M49.793,141.623h3.061v3.061h-3.061z M58.976,141.623h3.061v3.061h-3.061z M74.281,141.623h3.061v3.061h-3.061z M77.342,141.623h3.061v3.061h-3.061z M89.586,141.623h3.061v3.061h-3.061z M95.708,141.623h3.061v3.061h-3.061z M98.769,141.623h3.061v3.061h-3.061z M101.83,141.623h3.061v3.061h-3.061z M104.891,141.623h3.061v3.061h-3.061z M107.952,141.623h3.061v3.061h-3.061z M111.013,141.623h3.061v3.061h-3.061z M117.135,141.623h3.061v3.061h-3.061z M129.379,141.623h3.061v3.061h-3.061z M132.44,141.623h3.061v3.061h-3.061z M144.684,141.623h3.061v3.061h-3.061z M147.745,141.623h3.061v3.061h-3.061z M156.928,141.623h3.061v3.061h-3.061z M34.488,144.684h3.061v3.061h-3.061z M40.61,144.684h3.061v3.061h-3.061z M46.732,144.684h3.061v3.061h-3.061z M52.854,144.684h3.061v3.061h-3.061z M58.976,144.684h3.061v3.061h-3.061z M65.098,144.684h3.061v3.061h-3.061z M77.342,144.684h3.061v3.061h-3.061z M80.403,144.684h3.061v3.061h-3.061z M83.464,144.684h3.061v3.061h-3.061z M86.525,144.684h3.061v3.061h-3.061z M89.586,144.684h3.061v3.061h-3.061z M92.647,144.684h3.061v3.061h-3.061z M101.83,144.684h3.061v3.061h-3.061z M111.013,144.684h3.061v3.061h-3.061z M114.074,144.684h3.061v3.061h-3.061z M120.196,144.684h3.061v3.061h-3.061z M129.379,144.684h3.061v3.061h-3.061z M132.44,144.684h3.061v3.061h-3.061z M135.501,144.684h3.061v3.061h-3.061z M138.562,144.684h3.061v3.061h-3.061z M141.623,144.684h3.061v3.061h-3.061z M144.684,144.684h3.061v3.061h-3.061z M150.806,144.684h3.061v3.061h-3.061z M156.928,144.684h3.061v3.061h-3.061z M34.488,147.745h3.061v3.061h-3.061z M37.549,147.745h3.061v3.061h-3.061z M40.61,147.745h3.061v3.061h-3.061z M46.732,147.745h3.061v3.061h-3.061z M52.854,147.745h3.061v3.061h-3.061z M58.976,147.745h3.061v3.061h-3.061z M62.037,147.745h3.061v3.061h-3.061z M68.159,147.745h3.061v3.061h-3.061z M71.22,147.745h3.061v3.061h-3.061z M80.403,147.745h3.061v3.061h-3.061z M92.647,147.745h3.061v3.061h-3.061z M101.83,147.745h3.061v3.061h-3.061z M104.891,147.745h3.061v3.061h-3.061z M117.135,147.745h3.061v3.061h-3.061z M129.379,147.745h3.061v3.061h-3.061z M132.44,147.745h3.061v3.061h-3.061z M135.501,147.745h3.061v3.061h-3.061z M138.562,147.745h3.061v3.061h-3.061z M141.623,147.745h3.061v3.061h-3.061z M144.684,147.745h3.061v3.061h-3.061z M147.745,147.745h3.061v3.061h-3.061z M150.806,147.745h3.061v3.061h-3.061z M156.928,147.745h3.061v3.061h-3.061z M34.488,150.806h3.061v3.061h-3.061z M37.549,150.806h3.061v3.061h-3.061z M40.61,150.806h3.061v3.061h-3.061z M52.854,150.806h3.061v3.061h-3.061z M55.915,150.806h3.061v3.061h-3.061z M58.976,150.806h3.061v3.061h-3.061z M65.098,150.806h3.061v3.061h-3.061z M71.22,150.806h3.061v3.061h-3.061z M77.342,150.806h3.061v3.061h-3.061z M83.464,150.806h3.061v3.061h-3.061z M86.525,150.806h3.061v3.061h-3.061z M92.647,150.806h3.061v3.061h-3.061z M98.769,150.806h3.061v3.061h-3.061z M120.196,150.806h3.061v3.061h-3.061z M123.257,150.806h3.061v3.061h-3.061z M126.318,150.806h3.061v3.061h-3.061z M138.562,150.806h3.061v3.061h-3.061z M147.745,150.806h3.061v3.061h-3.061z M37.549,153.867h3.061v3.061h-3.061z M46.732,153.867h3.061v3.061h-3.061z M55.915,153.867h3.061v3.061h-3.061z M65.098,153.867h3.061v3.061h-3.061z M68.159,153.867h3.061v3.061h-3.061z M71.22,153.867h3.061v3.061h-3.061z M74.281,153.867h3.061v3.061h-3.061z M77.342,153.867h3.061v3.061h-3.061z M80.403,153.867h3.061v3.061h-3.061z M92.647,153.867h3.061v3.061h-3.061z M98.769,153.867h3.061v3.061h-3.061z M114.074,153.867h3.061v3.061h-3.061z M117.135,153.867h3.061v3.061h-3.061z M132.44,153.867h3.061v3.061h-3.061z M138.562,153.867h3.061v3.061h-3.061z M144.684,153.867h3.061v3.061h-3.061z M156.928,153.867h3.061v3.061h-3.061z M34.488,156.928h3.061v3.061h-3.061z M37.549,156.928h3.061v3.061h-3.061z M40.61,156.928h3.061v3.061h-3.061z M46.732,156.928h3.061v3.061h-3.061z M49.793,156.928h3.061v3.061h-3.061z M52.854,156.928h3.061v3.061h-3.061z M62.037,156.928h3.061v3.061h-3.061z M71.22,156.928h3.061v3.061h-3.061z M74.281,156.928h3.061v3.061h-3.061z M80.403,156.928h3.061v3.061h-3.061z M83.464,156.928h3.061v3.061h-3.061z M86.525,156.928h3.061v3.061h-3.061z M95.708,156.928h3.061v3.061h-3.061z M104.891,156.928h3.061v3.061h-3.061z M107.952,156.928h3.061v3.061h-3.061z M111.013,156.928h3.061v3.061h-3.061z M114.074,156.928h3.061v3.061h-3.061z M120.196,156.928h3.061v3.061h-3.061z M132.44,156.928h3.061v3.061h-3.061z M135.501,156.928h3.061v3.061h-3.061z M150.806,156.928h3.061v3.061h-3.061z M153.867,156.928h3.061v3.061h-3.061z M156.928,156.928h3.061v3.061h-3.061z" fill="#000000"/><rect x="10" y="10" width="21.427" height="21.427" rx="0" fill="#000000"/><mask id="marker1_mask" style="mask-type:alpha" maskUnits="userSpaceOnUse" x="13.061" y="13.061" width="15.305" height="15.305"><rect x="13.061" y="13.061" width="15.305" height="15.305" rx="0" fill="#ffffff"/></mask><g mask="url(#marker1_mask)"><rect x="13.061" y="13.061" width="15.305" height="15.305" rx="0" fill="#ffffff"/></g><rect x="16.122" y="16.122" width="9.183" height="9.183" rx="0" fill="#000000"/><rect x="10" y="138.562" width="21.427" height="21.427" rx="0" fill="#000000"/><mask id="marker2_mask" style="mask-type:alpha" maskUnits="userSpaceOnUse" x="13.061" y="141.62300000000002" width="15.305" height="15.305"><rect x="13.061" y="141.62300000000002" width="15.305" height="15.305" rx="0" fill="#ffffff"/></mask><g mask="url(#marker2_mask)"><rect x="13.061" y="141.62300000000002" width="15.305" height="15.305" rx="0" fill="#ffffff"/></g><rect x="16.122" y="144.68400000000003" width="9.183" height="9.183" rx="0" fill="#000000"/><rect x="138.562" y="10" width="21.427" height="21.427" rx="0" fill="#000000"/><mask id="marker3_mask" style="mask-type:alpha" maskUnits="userSpaceOnUse" x="141.62300000000002" y="13.061" width="15.305" height="15.305"><rect x="141.62300000000002" y="13.061" width="15.305" height="15.305" rx="0" fill="#ffffff"/></mask><g mask="url(#marker3_mask)"><rect x="141.62300000000002" y="13.061" width="15.305" height="15.305" rx="0" fill="#ffffff"/></g><rect x="144.68400000000003" y="16.122" width="9.183" height="9.183" rx="0" fill="#000000"/></g><defs></defs></svg>